<?xml version="1.0" encoding="UTF-8"?>
<!-- Generator: visioncortex VTracer 0.6.4 -->
<svg version="1.1" xmlns="http://www.w3.org/2000/svg" width="920" height="150">
<path d="M0 0 C303.6 0 607.2 0 920 0 C920 49.5 920 99 920 150 C616.4 150 312.8 150 0 150 C0 100.5 0 51 0 0 Z " fill="#FDFDFD" transform="translate(0,0)"/>
<path d="M0 0 C64.906 0 64.906 0 80.148 14.059 C87.44 21.704 91.008 30.282 91.438 40.812 C91.1 52.225 87.321 61.62 79.34 69.676 C75.296 73.388 70.992 75.787 66 78 C65.172 78.374 64.345 78.748 63.492 79.133 C61.333 80.101 59.169 81.056 57 82 C57.557 82.678 58.114 83.356 58.688 84.055 C62.483 88.684 66.268 93.32 70 98 C76.32 105.913 82.735 113.737 89.312 121.438 C89.816 122.029 90.32 122.62 90.839 123.229 C93.452 126.276 96.111 129.207 99 132 C75.82 132.857 75.82 132.857 65.625 124.812 C59.618 119.112 55.164 112.118 50.554 105.289 C48.987 102.98 47.393 100.693 45.789 98.41 C44.776 96.961 43.763 95.512 42.75 94.062 C42.033 93.043 42.033 93.043 41.301 92.002 C38 87.228 38 87.228 38 85 C31.4 85 24.8 85 18 85 C18 100.51 18 116.02 18 132 C12.06 132 6.12 132 0 132 C0 88.44 0 44.88 0 0 Z " fill="#0F1515" transform="translate(20,9)"/>
<path d="M0 0 C1.363 0.988 2.718 1.987 4.062 3 C4.929 3.578 5.795 4.155 6.688 4.75 C15.073 12.695 20.237 23.336 21.473 34.809 C21.846 50.656 17.457 64.169 6.523 75.738 C-3.686 85.121 -15.893 88.354 -29.492 88.215 C-42.911 87.378 -53.813 81.758 -62.938 72 C-72.047 60.483 -75.469 47.563 -73.938 33 C-71.178 20.042 -64.167 9.333 -53.938 1 C-37.346 -9.348 -16.776 -10.853 0 0 Z " fill="#0F1515" transform="translate(189.9375,55)"/>
<path d="M0 0 C4.771 3.188 8.613 7.441 11.777 12.188 C12.395 11.512 13.012 10.837 13.648 10.141 C21.283 2.099 26.556 -1.903 37.777 -2.312 C46.447 -2.005 51.93 -0.023 58.09 6.125 C66.031 16.058 66.352 27.925 66.168 40.113 C66.16 41.597 66.155 43.08 66.151 44.564 C66.136 48.423 66.097 52.28 66.052 56.139 C66.011 60.094 65.993 64.05 65.973 68.006 C65.93 75.733 65.86 83.46 65.777 91.188 C59.507 91.188 53.237 91.188 46.777 91.188 C46.763 89.255 46.748 87.323 46.733 85.332 C46.681 78.929 46.616 72.527 46.542 66.125 C46.497 62.246 46.458 58.366 46.431 54.487 C46.405 50.739 46.364 46.991 46.314 43.243 C46.298 41.817 46.286 40.391 46.28 38.965 C46.384 28.63 46.384 28.63 42.777 19.188 C39.17 15.761 36.509 14.354 31.527 13.875 C26.128 14.325 22.82 16.049 19.157 19.883 C13.851 26.872 13.912 33.567 13.973 42.066 C13.961 43.488 13.947 44.91 13.931 46.333 C13.895 50.046 13.895 53.759 13.902 57.473 C13.903 61.275 13.87 65.076 13.84 68.877 C13.786 76.314 13.773 83.75 13.777 91.188 C7.507 91.188 1.237 91.188 -5.223 91.188 C-5.227 89.2 -5.231 87.212 -5.235 85.164 C-5.255 78.574 -5.297 71.985 -5.355 65.395 C-5.389 61.402 -5.414 57.41 -5.418 53.417 C-5.423 49.558 -5.451 45.701 -5.496 41.843 C-5.509 40.376 -5.513 38.909 -5.509 37.441 C-5.446 26.951 -5.446 26.951 -9.763 17.59 C-12.681 14.786 -15.012 14.208 -19.035 13.812 C-24.726 14.023 -28.241 16.333 -32.279 20.113 C-38.837 27.348 -39.367 33.473 -39.223 42.945 C-39.23 44.344 -39.241 45.742 -39.256 47.14 C-39.284 50.787 -39.265 54.432 -39.236 58.079 C-39.214 61.813 -39.238 65.547 -39.258 69.281 C-39.29 76.584 -39.268 83.885 -39.223 91.188 C-45.493 91.188 -51.763 91.188 -58.223 91.188 C-58.223 61.157 -58.223 31.127 -58.223 0.188 C-51.953 0.188 -45.683 0.188 -39.223 0.188 C-38.893 3.818 -38.563 7.448 -38.223 11.188 C-37.398 10.136 -36.573 9.084 -35.723 8 C-27.181 -2.002 -12.232 -5.567 0 0 Z " fill="#111717" transform="translate(835.22265625,49.8125)"/>
<path d="M0 0 C5.28 0 10.56 0 16 0 C16 8.25 16 16.5 16 25 C28.87 25 41.74 25 55 25 C55.289 17.147 55.289 17.147 55.568 9.293 C55.606 8.321 55.644 7.349 55.684 6.348 C55.72 5.347 55.757 4.347 55.795 3.317 C56 1 56 1 57 0 C59.533 -0.073 62.031 -0.092 64.562 -0.062 C67.017 -0.042 69.471 -0.021 72 0 C72 8.25 72 16.5 72 25 C79.92 25 87.84 25 96 25 C96 29.62 96 34.24 96 39 C87.75 39 79.5 39 71 39 C71.051 46.903 71.114 54.804 71.208 62.706 C71.238 65.395 71.259 68.084 71.271 70.772 C71.292 74.635 71.339 78.497 71.391 82.359 C71.392 83.564 71.393 84.768 71.394 86.009 C71.414 87.13 71.434 88.25 71.454 89.405 C71.467 90.884 71.467 90.884 71.481 92.393 C72.141 95.709 73.42 96.886 76 99 C80.262 101.131 86.408 100.045 91 100 C91 105.28 91 110.56 91 116 C65.433 116.848 65.433 116.848 58.152 110.352 C52.617 104.358 51.701 98.913 51.77 90.992 C51.77 90.112 51.77 89.232 51.771 88.325 C51.774 86.458 51.782 84.59 51.794 82.722 C51.812 79.933 51.815 77.145 51.814 74.355 C51.819 72.526 51.825 70.697 51.832 68.867 C51.833 68.062 51.834 67.257 51.835 66.428 C51.907 57.251 52.516 48.196 53 39 C40.13 39 27.26 39 14 39 C14.051 46.903 14.114 54.804 14.208 62.706 C14.238 65.395 14.259 68.084 14.271 70.772 C14.292 74.635 14.339 78.497 14.391 82.359 C14.392 83.564 14.393 84.768 14.394 86.009 C14.414 87.13 14.434 88.25 14.454 89.405 C14.467 90.884 14.467 90.884 14.481 92.393 C15.141 95.709 16.42 96.886 19 99 C22.003 100.502 24.791 100.093 28.125 100.062 C31.528 100.032 31.528 100.032 35 100 C35 105.28 35 110.56 35 116 C31.479 116.081 27.959 116.141 24.438 116.188 C23.447 116.213 22.456 116.238 21.436 116.264 C13.809 116.34 8.239 115.326 2.25 110.25 C1.422 109.577 1.422 109.577 0.578 108.891 C-4.286 103.063 -4.425 97.032 -4.328 89.781 C-4.326 88.806 -4.324 87.83 -4.322 86.825 C-4.316 84.764 -4.302 82.703 -4.281 80.643 C-4.25 77.538 -4.24 74.433 -4.234 71.328 C-4.191 60.507 -3.866 49.787 -3 39 C-8.28 39 -13.56 39 -19 39 C-19 34.38 -19 29.76 -19 25 C-13.39 25 -7.78 25 -2 25 C-1.34 16.75 -0.68 8.5 0 0 Z " fill="#0F1514" transform="translate(463,25)"/>
<path d="M0 0 C10.66 7.016 17.115 16.04 20.219 28.457 C20.219 34.727 20.219 40.997 20.219 47.457 C-2.221 47.457 -24.661 47.457 -47.781 47.457 C-43.249 61.361 -43.249 61.361 -32.594 69.895 C-22.904 74.295 -11.747 73.531 -1.941 69.875 C2.54 67.864 6.863 65.593 11.144 63.188 C14.125 61.516 16.823 60.026 20.219 59.457 C18.492 69.639 12.417 76.482 4.219 82.457 C-8.294 89.409 -22.298 90.376 -36.324 87.809 C-48.359 83.745 -57.199 75.643 -63.031 64.582 C-68.907 52.137 -69.668 38.596 -65.812 25.297 C-61.193 12.576 -53.495 3.941 -41.555 -2.352 C-28.204 -8.087 -12.661 -7.024 0 0 Z " fill="#101515" transform="translate(418.78125,53.54296875)"/>
<path d="M0 0 C1.437 1.035 2.855 2.097 4.25 3.188 C5.192 3.922 5.192 3.922 6.152 4.672 C12.516 10.298 15.609 18.263 18.25 26.188 C18.25 32.787 18.25 39.388 18.25 46.188 C-3.86 46.188 -25.97 46.188 -48.75 46.188 C-46.727 55.292 -44.775 61.822 -36.875 67.125 C-27.631 72.202 -18.134 72.254 -8.062 69.688 C-1.184 67.601 4.845 64.446 11.07 60.895 C13.586 59.544 15.472 58.651 18.25 58.188 C17.667 65.966 13.04 72.162 7.547 77.449 C-5.325 87.19 -19.065 88.54 -34.75 87.188 C-45.889 84.556 -55.081 77.345 -61.75 68.188 C-69.536 55.437 -70.804 40.086 -68.062 25.539 C-66.059 19.045 -62.97 13.496 -58.75 8.188 C-58.272 7.573 -57.794 6.958 -57.301 6.324 C-42.945 -9.984 -17.546 -10.963 0 0 Z " fill="#0F1514" transform="translate(628.75,54.8125)"/>
<path d="M0 0 C1.268 0.99 1.268 0.99 2.562 2 C3.27 2.531 3.978 3.062 4.707 3.609 C7.34 7.002 7.001 10.151 6.812 14.25 C6.794 14.995 6.776 15.74 6.758 16.508 C6.711 18.339 6.639 20.17 6.562 22 C2.847 20.674 0.061 19.018 -3.062 16.625 C-12.1 10.231 -21.325 7.372 -32.438 9 C-37.091 10.631 -40.398 12.669 -43.438 16.562 C-44.916 20.166 -45.62 23.481 -45.75 27.375 C-45.787 28.105 -45.825 28.834 -45.863 29.586 C-45.019 34.374 -42.305 37.329 -38.547 40.238 C-37.438 40.923 -36.33 41.607 -35.188 42.312 C-34.279 42.879 -34.279 42.879 -33.353 43.457 C-28.046 46.727 -22.596 49.74 -17.142 52.756 C-11.638 55.824 -6.474 59.208 -1.438 63 C-0.365 63.763 0.707 64.526 1.812 65.312 C8.227 71.581 12.75 79.899 12.944 88.926 C12.909 101.308 10.816 109.691 1.914 118.84 C-8.78 128.663 -21.236 129.818 -35.258 129.41 C-42.308 129 -48.085 127.139 -54.438 124 C-55.959 123.395 -55.959 123.395 -57.512 122.777 C-60.792 121.135 -62.413 120.086 -64.438 117 C-65.626 110.731 -65.005 104.309 -64.438 98 C-63.936 98.389 -63.435 98.778 -62.919 99.178 C-50.007 109.14 -40.117 115.401 -23.438 114 C-18.969 113.163 -15.616 111.54 -12.562 108.125 C-8.116 101.586 -7.642 95.771 -8.438 88 C-12.41 78.164 -25.022 73.061 -33.938 68.5 C-46.399 62.111 -58.358 55.58 -64.375 42.188 C-67.483 32.36 -65.329 22.268 -61.438 13 C-56.901 4.466 -48.823 -0.92 -40 -4.438 C-26.41 -8.494 -12.19 -7.093 0 0 Z " fill="#0F1514" transform="translate(716.4375,13)"/>
<path d="M0 0 C6.27 0 12.54 0 19 0 C19.015 1.836 19.029 3.673 19.044 5.564 C19.096 11.655 19.161 17.746 19.236 23.837 C19.28 27.527 19.32 31.217 19.346 34.907 C19.373 38.474 19.413 42.04 19.463 45.606 C19.488 47.617 19.498 49.629 19.508 51.641 C19.486 62.367 19.486 62.367 24.451 71.545 C29.626 76.017 33.223 76.42 39.898 76.332 C47.326 75.537 52.535 70.236 57.284 64.788 C60.579 59.434 60.091 53.678 60 47.559 C60.008 46.181 60.019 44.804 60.033 43.427 C60.061 39.831 60.042 36.237 60.013 32.641 C59.991 28.961 60.015 25.28 60.035 21.6 C60.067 14.399 60.046 7.2 60 0 C66.27 0 72.54 0 79 0 C79 30.03 79 60.06 79 91 C72.73 91 66.46 91 60 91 C60 87.04 60 83.08 60 79 C59.322 79.603 58.644 80.207 57.945 80.828 C51.934 85.991 46.569 89.628 39 92 C38.01 92.33 37.02 92.66 36 93 C26.26 94.067 17.831 92.234 9.832 86.426 C4.116 81.197 1.254 74.555 0 67 C-0.086 64.762 -0.118 62.522 -0.114 60.282 C-0.114 59.628 -0.114 58.974 -0.114 58.299 C-0.113 56.151 -0.106 54.003 -0.098 51.855 C-0.096 50.36 -0.094 48.865 -0.093 47.37 C-0.09 43.446 -0.08 39.522 -0.069 35.598 C-0.058 31.589 -0.054 27.581 -0.049 23.572 C-0.038 15.715 -0.021 7.857 0 0 Z " fill="#0E1514" transform="translate(223,50)"/>
<path d="M0 0 C6.144 4.904 9.243 11.171 11.695 18.527 C12.497 30.249 11.818 41.291 3.891 50.512 C-2.35 56.242 -9.055 58.87 -17.492 59.152 C-26.533 58.705 -32.893 55.71 -39.512 49.594 C-46.246 41.833 -47.75 33.218 -47.637 23.266 C-46.787 13.704 -42.563 6.721 -35.578 0.305 C-24.911 -8.034 -11.052 -7.062 0 0 Z " fill="#FCFCFC" transform="translate(181.3046875,68.47265625)"/>
<path d="M0 0 C6.27 0 12.54 0 19 0 C19 43.56 19 87.12 19 132 C12.73 132 6.46 132 0 132 C0 88.44 0 44.88 0 0 Z " fill="#131818" transform="translate(319,9)"/>
<path d="M0 0 C4.641 -0.062 9.281 -0.124 14.062 -0.188 C16.238 -0.228 16.238 -0.228 18.457 -0.27 C28.556 -0.335 34.69 0.939 42.199 7.938 C48.011 14.594 48.562 22.125 48.238 30.676 C48.16 31.773 48.081 32.87 48 34 C47.952 34.839 47.905 35.678 47.855 36.543 C47.066 42.494 43.811 46.283 39.973 50.738 C27.68 60.091 15.226 57 0 57 C0 38.19 0 19.38 0 0 Z " fill="#FCFDFD" transform="translate(39,23)"/>
<path d="M0 0 C2.868 2.448 4.119 5.064 5.625 8.5 C6.05 9.459 6.476 10.418 6.914 11.406 C8.996 16.379 8.974 20.331 8.625 25.625 C8.581 26.414 8.537 27.203 8.492 28.016 C8.13 33.87 8.13 33.87 7 35 C4.992 35.118 2.979 35.167 0.967 35.189 C-0.324 35.206 -1.616 35.223 -2.947 35.24 C-3.641 35.247 -4.336 35.253 -5.052 35.26 C-7.22 35.281 -9.389 35.308 -11.557 35.337 C-16.163 35.397 -20.769 35.449 -25.375 35.5 C-30.704 35.559 -36.033 35.622 -41.362 35.692 C-43.5 35.718 -45.638 35.739 -47.775 35.76 C-49.073 35.777 -50.371 35.793 -51.708 35.811 C-53.426 35.829 -53.426 35.829 -55.178 35.849 C-58.079 35.879 -58.079 35.879 -61 37 C-60.67 36.01 -60.34 35.02 -60 34 C-59.34 34 -58.68 34 -58 34 C-58.33 32.68 -58.66 31.36 -59 30 C-57.68 29.34 -56.36 28.68 -55 28 C-57.31 27.67 -59.62 27.34 -62 27 C-61.67 26.34 -61.34 25.68 -61 25 C-43.51 25 -26.02 25 -8 25 C-7.75 18.414 -7.75 18.414 -10 13 C-10 16.63 -10 20.26 -10 24 C-26.17 24 -42.34 24 -59 24 C-58.037 15.331 -57.084 9.596 -50.812 3.688 C-45.377 -0.575 -38.94 -2.592 -32.039 -2.289 C-25.547 -1.369 -20.218 1.12 -15 5 C-15 3.68 -15 2.36 -15 1 C-14.67 0.01 -14.34 -0.98 -14 -2 C-11.36 -1.67 -8.72 -1.34 -6 -1 C-7.32 -1.66 -8.64 -2.32 -10 -3 C-5.684 -4.992 -3.479 -2.665 0 0 Z " fill="#101615" transform="translate(638,64)"/>
<path d="M0 0 C9.248 7.075 14.786 15.396 17.625 26.75 C17.625 33.02 17.625 39.29 17.625 45.75 C-4.815 45.75 -27.255 45.75 -50.375 45.75 C-50.705 46.74 -51.035 47.73 -51.375 48.75 C-51.705 48.09 -52.035 47.43 -52.375 46.75 C-52.045 46.09 -51.715 45.43 -51.375 44.75 C-50.715 44.75 -50.055 44.75 -49.375 44.75 C-49.602 44.193 -49.829 43.636 -50.062 43.062 C-50.497 39.844 -49.065 38.426 -47.375 35.75 C-47.705 35.09 -48.035 34.43 -48.375 33.75 C-32.744 32.331 -17.053 32.654 -1.375 32.75 C-2.707 24.137 -4.084 17.271 -10.984 11.375 C-16.068 8.316 -21.944 7.961 -27.74 7.432 C-34.749 6.776 -34.749 6.776 -37.375 4.75 C-37.914 2.84 -37.914 2.84 -38 0.688 C-38.124 -0.612 -38.248 -1.911 -38.375 -3.25 C-39.035 -3.58 -39.695 -3.91 -40.375 -4.25 C-31.269 -13.356 -8.801 -5.792 0 0 Z " fill="#0E1413" transform="translate(421.375,55.25)"/>
<path d="M0 0 C6.27 0 12.54 0 19 0 C19 30.03 19 60.06 19 91 C12.73 91 6.46 91 0 91 C0 60.97 0 30.94 0 0 Z " fill="#131918" transform="translate(742,50)"/>
<path d="M0 0 C3.751 3.479 6.221 8.099 7.75 12.938 C7.75 15.578 7.75 18.218 7.75 20.938 C-8.42 20.938 -24.59 20.938 -41.25 20.938 C-40.287 12.269 -39.334 6.533 -33.062 0.625 C-22.897 -7.347 -10.577 -6.712 0 0 Z " fill="#FAFAFA" transform="translate(412.25,67.0625)"/>
<path d="M0 0 C6.19 4.088 8.721 9.164 11 16 C11 18.31 11 20.62 11 23 C-5.17 23 -21.34 23 -38 23 C-37.037 14.331 -36.084 8.596 -29.812 2.688 C-20.808 -4.374 -10.142 -4.666 0 0 Z " fill="#F9FAFA" transform="translate(617,65)"/>
<path d="M0 0 C1.525 0.089 3.047 0.245 4.562 0.438 C5.389 0.539 6.215 0.641 7.066 0.746 C7.704 0.83 8.343 0.914 9 1 C8.67 2.65 8.34 4.3 8 6 C7.34 6 6.68 6 6 6 C5.67 7.98 5.34 9.96 5 12 C4.01 12 3.02 12 2 12 C2.66 12.66 3.32 13.32 4 14 C-28 14 -28 14 -30 13 C-30.66 13.66 -31.32 14.32 -32 15 C-32.66 11.7 -33.32 8.4 -34 5 C-37.3 5 -40.6 5 -44 5 C-44.33 4.01 -44.66 3.02 -45 2 C-44.451 1.99 -43.902 1.979 -43.336 1.969 C-37.643 1.861 -31.949 1.746 -26.256 1.628 C-24.129 1.584 -22.002 1.543 -19.874 1.503 C-16.824 1.445 -13.773 1.381 -10.723 1.316 C-9.765 1.3 -8.808 1.283 -7.822 1.266 C-6.501 1.236 -6.501 1.236 -5.153 1.205 C-4.373 1.19 -3.594 1.174 -2.791 1.158 C-0.977 1.191 -0.977 1.191 0 0 Z " fill="#141A19" transform="translate(66,9)"/>
<path d="M0 0 C3.643 2.125 5.426 4.139 7 8 C7.338 12.844 6.652 16.176 3.625 20 C-0.543 23.175 -3.853 23.436 -9 23 C-12.704 20.973 -14.654 19.52 -17 16 C-17.614 11.741 -17.437 8.028 -15.75 4.062 C-11.575 -0.858 -6.049 -0.804 0 0 Z " fill="#101515" transform="translate(757,11)"/>
<path d="M0 0 C15.18 0 30.36 0 46 0 C45.67 0.66 45.34 1.32 45 2 C30.81 2.33 16.62 2.66 2 3 C2 3.66 2 4.32 2 5 C2.66 5.33 3.32 5.66 4 6 C3.67 6.33 3.34 6.66 3 7 C2.892 8.606 2.853 10.218 2.842 11.828 C2.832 12.873 2.822 13.917 2.812 14.994 C2.806 16.15 2.801 17.305 2.795 18.496 C2.785 19.706 2.775 20.916 2.765 22.162 C2.738 25.488 2.717 28.814 2.697 32.141 C2.675 35.613 2.647 39.086 2.621 42.559 C2.571 49.139 2.526 55.719 2.483 62.299 C2.433 69.789 2.378 77.279 2.323 84.768 C2.209 100.179 2.102 115.589 2 131 C2.66 130.67 3.32 130.34 4 130 C6.374 129.929 8.75 129.916 11.125 129.938 C12.406 129.947 13.688 129.956 15.008 129.965 C16.489 129.982 16.489 129.982 18 130 C18 130.66 18 131.32 18 132 C12.06 132 6.12 132 0 132 C0 88.44 0 44.88 0 0 Z " fill="#040606" transform="translate(20,9)"/>
<path d="M0 0 C5.94 0.33 11.88 0.66 18 1 C18 4.63 18 8.26 18 12 C17.67 12 17.34 12 17 12 C16.67 9.03 16.34 6.06 16 3 C9.07 2.505 9.07 2.505 2 2 C2 31.04 2 60.08 2 90 C2.99 89.505 2.99 89.505 4 89 C8.29 89 12.58 89 17 89 C17 69.53 17 50.06 17 30 C17.33 30 17.66 30 18 30 C18 50.13 18 70.26 18 91 C12.06 91 6.12 91 0 91 C0 60.97 0 30.94 0 0 Z " fill="#010303" transform="translate(777,50)"/>
<path d="M0 0 C6.27 0 12.54 0 19 0 C19 30.03 19 60.06 19 91 C18.67 91 18.34 91 18 91 C18 61.3 18 31.6 18 1 C17.67 2.32 17.34 3.64 17 5 C14.03 4.505 14.03 4.505 11 4 C11 4.33 11 4.66 11 5 C8.69 5.33 6.38 5.66 4 6 C3.67 11.28 3.34 16.56 3 22 C2.67 22 2.34 22 2 22 C2.005 21.399 2.01 20.799 2.016 20.18 C2.037 17.474 2.05 14.768 2.062 12.062 C2.071 11.117 2.079 10.171 2.088 9.197 C2.093 7.849 2.093 7.849 2.098 6.473 C2.103 5.64 2.108 4.807 2.114 3.949 C2.216 1.995 2.216 1.995 1 1 C1 21.13 1 41.26 1 62 C0.67 62 0.34 62 0 62 C0 41.54 0 21.08 0 0 Z " fill="#424545" transform="translate(283,50)"/>
<path d="M0 0 C0.33 0 0.66 0 1 0 C1 21.78 1 43.56 1 66 C-4.94 66 -10.88 66 -17 66 C-17 44.88 -17 23.76 -17 2 C-16.34 2 -15.68 2 -15 2 C-15 22.46 -15 42.92 -15 64 C-10.05 64 -5.1 64 0 64 C0 42.88 0 21.76 0 0 Z " fill="#050708" transform="translate(899,75)"/>
<path d="M0 0 C6.27 0 12.54 0 19 0 C19 22.11 19 44.22 19 67 C18.67 67 18.34 67 18 67 C16.744 60.224 16.874 53.503 16.902 46.629 C16.904 45.351 16.905 44.074 16.907 42.758 C16.911 39.383 16.92 36.008 16.931 32.633 C16.942 29.18 16.946 25.728 16.951 22.275 C16.962 15.517 16.979 8.758 17 2 C11.39 2 5.78 2 0 2 C0 1.34 0 0.68 0 0 Z " fill="#242424" transform="translate(223,50)"/>
<path d="M0 0 C0.33 0 0.66 0 1 0 C1 4.29 1 8.58 1 13 C-21.77 13 -44.54 13 -68 13 C-63.926 10.963 -62.188 10.734 -57.763 10.681 C-56.502 10.661 -55.241 10.641 -53.941 10.621 C-52.57 10.609 -51.199 10.597 -49.828 10.586 C-48.421 10.567 -47.015 10.548 -45.608 10.527 C-41.912 10.476 -38.217 10.436 -34.521 10.399 C-30.747 10.359 -26.973 10.308 -23.199 10.258 C-15.8 10.161 -8.4 10.077 -1 10 C-0.67 6.7 -0.34 3.4 0 0 Z " fill="#020504" transform="translate(646,88)"/>
<path d="M0 0 C3 2 3 2 3.547 4.094 C3.647 5.285 3.647 5.285 3.75 6.5 C3.827 7.294 3.905 8.088 3.984 8.906 C4 11 4 11 3 13 C-14.344 14.01 -31.634 14.115 -49 14 C-49 13.67 -49 13.34 -49 13 C-38.63 11.676 -28.243 11.887 -17.812 11.938 C-15.984 11.943 -14.155 11.947 -12.326 11.951 C-7.884 11.962 -3.442 11.979 1 12 C0.505 6.06 0.505 6.06 0 0 Z " fill="#020403" transform="translate(627,76)"/>
<path d="M0 0 C0.99 0.66 1.98 1.32 3 2 C2.67 2.66 2.34 3.32 2 4 C-5.197 6.159 -12.508 6.731 -20 6 C-20.66 5.34 -21.32 4.68 -22 4 C-16.39 4 -10.78 4 -5 4 C-5 3.34 -5 2.68 -5 2 C-2.688 0.875 -2.688 0.875 0 0 Z " fill="#222325" transform="translate(177,137)"/>
<path d="M0 0 C0.66 0.99 1.32 1.98 2 3 C2.99 3.33 3.98 3.66 5 4 C4.67 8.95 4.34 13.9 4 19 C3.67 19 3.34 19 3 19 C3 15.04 3 11.08 3 7 C2.01 7 1.02 7 0 7 C0 8.32 0 9.64 0 11 C-0.66 11 -1.32 11 -2 11 C-1.125 3.375 -1.125 3.375 0 0 Z " fill="#1B2021" transform="translate(562,77)"/>
<path d="M0 0 C0.66 0 1.32 0 2 0 C2 0.66 2 1.32 2 2 C2.66 2.33 3.32 2.66 4 3 C4 3.33 4 3.66 4 4 C4.66 4 5.32 4 6 4 C6.66 3.01 7.32 2.02 8 1 C8.66 1.33 9.32 1.66 10 2 C8.507 5.8 6.376 7.749 3 10 C1.68 10 0.36 10 -1 10 C-0.928 9.362 -0.856 8.724 -0.781 8.066 C-0.688 7.24 -0.596 6.414 -0.5 5.562 C-0.407 4.739 -0.314 3.915 -0.219 3.066 C-0.055 1.536 -0.055 1.536 0 0 Z " fill="#1B1E1F" transform="translate(137,65)"/>
<path d="M0 0 C1.98 0 3.96 0 6 0 C6 0.66 6 1.32 6 2 C5.34 2 4.68 2 4 2 C4.66 3.32 5.32 4.64 6 6 C4.358 8.021 2.691 10.02 1 12 C0.67 12 0.34 12 0 12 C0 8.04 0 4.08 0 0 Z " fill="#F2F3F4" transform="translate(796,50)"/>
<path d="M0 0 C4.95 0 9.9 0 15 0 C14.67 1.65 14.34 3.3 14 5 C13.67 4.01 13.34 3.02 13 2 C12.67 2.66 12.34 3.32 12 4 C11.484 3.856 10.969 3.711 10.438 3.562 C7.315 2.842 4.174 2.427 1 2 C1 4.97 1 7.94 1 11 C0.67 11 0.34 11 0 11 C0 7.37 0 3.74 0 0 Z " fill="#040706" transform="translate(520,25)"/>
<path d="M0 0 C0.99 0 1.98 0 3 0 C3.433 1.237 3.866 2.475 4.312 3.75 C5.491 6.916 6.752 9.431 9 12 C8.01 13.485 8.01 13.485 7 15 C5.68 14.34 4.36 13.68 3 13 C3 12.34 3 11.68 3 11 C3.66 10.67 4.32 10.34 5 10 C4.175 9.649 3.35 9.299 2.5 8.938 C1.675 8.298 0.85 7.659 0 7 C-0.312 3.312 -0.312 3.312 0 0 Z " fill="#171C1A" transform="translate(240,112)"/>
<path d="M0 0 C2.155 0.372 3.772 0.855 5.625 2.031 C7.808 5.157 7.312 8.524 7.188 12.188 C7.174 12.937 7.16 13.687 7.146 14.459 C7.111 16.306 7.057 18.153 7 20 C5.68 19.34 4.36 18.68 3 18 C3.66 17.67 4.32 17.34 5 17 C4.887 14.854 4.759 12.708 4.625 10.562 C4.555 9.368 4.486 8.173 4.414 6.941 C4.277 5.971 4.141 5 4 4 C3.34 3.67 2.68 3.34 2 3 C2 2.34 2 1.68 2 1 C1.34 0.67 0.68 0.34 0 0 Z " fill="#070808" transform="translate(716,15)"/>
<path d="M0 0 C0.33 0 0.66 0 1 0 C1.33 2.64 1.66 5.28 2 8 C2.66 8 3.32 8 4 8 C5.382 9.626 6.719 11.293 8 13 C7.34 13 6.68 13 6 13 C5.67 13.66 5.34 14.32 5 15 C4.381 14.505 3.763 14.01 3.125 13.5 C1.161 11.808 1.161 11.808 -1 12 C-1.33 10.02 -1.66 8.04 -2 6 C-1.34 6 -0.68 6 0 6 C0 4.02 0 2.04 0 0 Z " fill="#141817" transform="translate(531,112)"/>
<path d="M0 0 C6.098 -0.221 11.216 -0.012 17 2 C17 2.66 17 3.32 17 4 C15.68 4 14.36 4 13 4 C13.66 4.66 14.32 5.32 15 6 C12.125 5.688 12.125 5.688 9 5 C8.34 4.01 7.68 3.02 7 2 C3.432 1.264 3.432 1.264 0 1 C0 0.67 0 0.34 0 0 Z " fill="#090E0E" transform="translate(393,48)"/>
<path d="M0 0 C0.66 0.33 1.32 0.66 2 1 C2 2.32 2 3.64 2 5 C3.981 6.362 5.981 7.696 8 9 C8 9.99 8 10.98 8 12 C8.33 12.99 8.66 13.98 9 15 C5.11 13.503 3.531 11.296 1.25 7.875 C0.636 6.965 0.023 6.055 -0.609 5.117 C-1.298 4.069 -1.298 4.069 -2 3 C-1.34 2.01 -0.68 1.02 0 0 Z " fill="#0B0F0E" transform="translate(74,113)"/>
<path d="M0 0 C0.33 0 0.66 0 1 0 C1 2.64 1 5.28 1 8 C6.94 8 12.88 8 19 8 C19 8.33 19 8.66 19 9 C12.4 9.33 5.8 9.66 -1 10 C-1 3 -1 3 0 0 Z " fill="#1F2324" transform="translate(370,80)"/>
<path d="M0 0 C0.763 0.309 1.526 0.619 2.312 0.938 C4.188 1.679 6.087 2.362 8 3 C8 6 8 6 7 9 C5.68 8.67 4.36 8.34 3 8 C3 6.35 3 4.7 3 3 C2.34 3 1.68 3 1 3 C0.67 3.66 0.34 4.32 0 5 C0 3.35 0 1.7 0 0 Z " fill="#161C1C" transform="translate(713,78)"/>
<path d="M0 0 C0.742 0.309 1.485 0.619 2.25 0.938 C4.856 2.031 4.856 2.031 7.125 2.438 C9.419 3.126 10.447 4.214 12 6 C11.67 6.66 11.34 7.32 11 8 C10.34 7.34 9.68 6.68 9 6 C7.094 5.578 7.094 5.578 5 5.438 C2.62 5.223 1.153 5.077 -1 4 C-0.67 2.68 -0.34 1.36 0 0 Z " fill="#0A0F0E" transform="translate(706,73)"/>
<path d="M0 0 C0 0.33 0 0.66 0 1 C-0.675 0.988 -1.351 0.977 -2.047 0.965 C-2.939 0.956 -3.831 0.947 -4.75 0.938 C-5.632 0.926 -6.513 0.914 -7.422 0.902 C-9.955 0.906 -9.955 0.906 -12.156 1.562 C-14.858 2.203 -16.557 1.154 -19 0 C-12.341 -1.763 -6.512 -2.838 0 0 Z " fill="#1A1C1D" transform="translate(690,140)"/>
<path d="M0 0 C1.98 0.66 3.96 1.32 6 2 C7.125 6.75 7.125 6.75 6 9 C5.01 9.495 5.01 9.495 4 10 C3.01 7.69 2.02 5.38 1 3 C0.67 3.66 0.34 4.32 0 5 C0 3.35 0 1.7 0 0 Z " fill="#0A0F0E" transform="translate(85,107)"/>
<path d="M0 0 C0.66 0.33 1.32 0.66 2 1 C1.01 2.32 0.02 3.64 -1 5 C-0.041 7.331 -0.041 7.331 3 9 C0.125 9.625 0.125 9.625 -3 10 C-3.66 9.34 -4.32 8.68 -5 8 C-5.99 8.495 -5.99 8.495 -7 9 C-5.445 5.183 -2.964 2.808 0 0 Z " fill="#060A0B" transform="translate(855,54)"/>
<path d="M0 0 C1.454 0.031 1.454 0.031 2.938 0.062 C2.938 0.393 2.938 0.723 2.938 1.062 C7.888 1.393 12.837 1.723 17.938 2.062 C17.938 2.393 17.938 2.723 17.938 3.062 C14.835 3.317 11.731 3.537 8.625 3.75 C7.303 3.859 7.303 3.859 5.955 3.971 C5.108 4.025 4.26 4.08 3.387 4.137 C2.606 4.194 1.826 4.252 1.022 4.311 C-1.608 3.997 -2.419 3.074 -4.062 1.062 C-3.062 0.062 -3.062 0.062 0 0 Z " fill="#1B1D1C" transform="translate(686.0625,6.9375)"/>
<path d="M0 0 C0.66 0.66 1.32 1.32 2 2 C2.99 1.67 3.98 1.34 5 1 C4.711 1.557 4.423 2.114 4.125 2.688 C2.959 5.085 1.966 7.516 1 10 C0.01 9.67 -0.98 9.34 -2 9 C-1.34 6.03 -0.68 3.06 0 0 Z " fill="#161A1B" transform="translate(354,76)"/>
<path d="M0 0 C0.928 0.278 0.928 0.278 1.875 0.562 C4.042 1.237 4.042 1.237 6 0 C5.188 1.938 5.188 1.938 4 4 C3.01 4.33 2.02 4.66 1 5 C0.67 5.66 0.34 6.32 0 7 C-0.66 7 -1.32 7 -2 7 C-2.33 6.01 -2.66 5.02 -3 4 C-1.562 1.812 -1.562 1.812 0 0 Z " fill="#191E1E" transform="translate(570,63)"/>
<path d="M0 0 C2.475 0.99 2.475 0.99 5 2 C4.01 3.32 3.02 4.64 2 6 C-0.954 4.628 -3.44 3.011 -6 1 C-4.793 1.031 -4.793 1.031 -3.562 1.062 C-1.066 1.296 -1.066 1.296 0 0 Z M-8 3 C-4 4 -4 4 -4 4 Z " fill="#161B1B" transform="translate(832,49)"/>
<path d="M0 0 C0 0.66 0 1.32 0 2 C-5.61 1.67 -11.22 1.34 -17 1 C-17 0.67 -17 0.34 -17 0 C-14.92 -0.391 -12.835 -0.762 -10.75 -1.125 C-9.01 -1.438 -9.01 -1.438 -7.234 -1.758 C-3.964 -2.003 -2.675 -1.788 0 0 Z " fill="#0A0C0D" transform="translate(406,61)"/>
<path d="M0 0 C2 2 2 2 2.266 4.715 C2.26 5.778 2.255 6.842 2.25 7.938 C2.255 8.998 2.26 10.059 2.266 11.152 C2 14 2 14 0 17 C-0.195 14.73 -0.381 12.459 -0.562 10.188 C-0.667 8.923 -0.771 7.658 -0.879 6.355 C-1 3 -1 3 0 0 Z " fill="#181B1C" transform="translate(109,42)"/>
<path d="M0 0 C2.143 3.477 2.213 6.212 2.125 10.25 C2.107 11.328 2.089 12.405 2.07 13.516 C2.036 14.745 2.036 14.745 2 16 C1.34 16 0.68 16 0 16 C-0.194 13.709 -0.38 11.417 -0.562 9.125 C-0.719 7.211 -0.719 7.211 -0.879 5.258 C-1 2 -1 2 0 0 Z " fill="#060809" transform="translate(709,96)"/>
<path d="M0 0 C1.32 0.33 2.64 0.66 4 1 C4 2.32 4 3.64 4 5 C0.04 6.98 0.04 6.98 -4 9 C-2 5 -2 5 0 3 C0 2.01 0 1.02 0 0 Z " fill="#181C1D" transform="translate(282,112)"/>
<path d="M0 0 C3 2 3 2 3.547 4.094 C3.614 4.888 3.681 5.682 3.75 6.5 C3.827 7.294 3.905 8.088 3.984 8.906 C4 11 4 11 3 13 C2.34 13 1.68 13 1 13 C0.67 8.71 0.34 4.42 0 0 Z " fill="#070B0B" transform="translate(627,76)"/>
<path d="M0 0 C4.875 4.75 4.875 4.75 6 7 C5.34 7.66 4.68 8.32 4 9 C2.5 7.625 2.5 7.625 1 6 C1 5.34 1 4.68 1 4 C0.01 4 -0.98 4 -2 4 C-1.34 2.68 -0.68 1.36 0 0 Z " fill="#1D1F20" transform="translate(427,61)"/>
<path d="M0 0 C4.875 1.75 4.875 1.75 6 4 C6.33 3.34 6.66 2.68 7 2 C7.99 3.98 8.98 5.96 10 8 C9.01 8.33 8.02 8.66 7 9 C5.827 7.881 4.662 6.755 3.5 5.625 C2.85 4.999 2.201 4.372 1.531 3.727 C0 2 0 2 0 0 Z " fill="#080B0B" transform="translate(76,25)"/>
<path d="M0 0 C3.375 0.547 5.082 1.055 8 3 C7.67 3.99 7.34 4.98 7 6 C5.333 6 3.667 6 2 6 C2 5.01 2 4.02 2 3 C1.34 3 0.68 3 0 3 C0 2.01 0 1.02 0 0 Z " fill="#0B0E0D" transform="translate(706,9)"/>
<path d="M0 0 C2 1 2 1 2 1 Z M-1 1 C-0.01 1.33 0.98 1.66 2 2 C2.66 1.67 3.32 1.34 4 1 C4 2.65 4 4.3 4 6 C2.68 6.33 1.36 6.66 0 7 C-0.99 5.68 -1.98 4.36 -3 3 C-2.34 3 -1.68 3 -1 3 C-1 2.34 -1 1.68 -1 1 Z " fill="#090E0C" transform="translate(233,129)"/>
<path d="M0 0 C2 3 2 3 2 6 C2.66 6 3.32 6 4 6 C3.34 7.32 2.68 8.64 2 10 C0.02 7.69 -1.96 5.38 -4 3 C-3.01 3 -2.02 3 -1 3 C-0.67 3.33 -0.34 3.66 0 4 C0 2.68 0 1.36 0 0 Z " fill="#262828" transform="translate(365,123)"/>
<path d="M0 0 C0 0.99 0 1.98 0 3 C-1.64 3.65 -1.64 3.65 -3.312 4.312 C-6.094 5.495 -8.064 6.608 -10 9 C-10.66 8.67 -11.32 8.34 -12 8 C-10.878 6.851 -9.752 5.706 -8.625 4.562 C-7.999 3.924 -7.372 3.286 -6.727 2.629 C-4.293 0.333 -3.407 0 0 0 Z " fill="#080B0B" transform="translate(374,55)"/>
<path d="M0 0 C0.33 0.99 0.66 1.98 1 3 C3.015 3.733 3.015 3.733 5 4 C3.35 5.65 1.7 7.3 0 9 C-0.99 8.67 -1.98 8.34 -3 8 C-2.34 7.34 -1.68 6.68 -1 6 C-1.33 5.34 -1.66 4.68 -2 4 C-1.062 1.875 -1.062 1.875 0 0 Z " fill="#070B0A" transform="translate(277,125)"/>
<path d="M0 0 C0.66 0 1.32 0 2 0 C1.67 1.65 1.34 3.3 1 5 C1.99 5.33 2.98 5.66 4 6 C4.688 8.062 4.688 8.062 5 10 C4.01 10 3.02 10 2 10 C0.25 7.812 0.25 7.812 -1 5 C-0.688 2.188 -0.688 2.188 0 0 Z " fill="#191C1B" transform="translate(122,113)"/>
<path d="M0 0 C0.33 0.99 0.66 1.98 1 3 C-0.65 4.65 -2.3 6.3 -4 8 C-4.66 7.67 -5.32 7.34 -6 7 C-6.66 7 -7.32 7 -8 7 C-7.312 5.062 -7.312 5.062 -6 3 C-3.438 2.375 -3.438 2.375 -1 2 C-0.67 1.34 -0.34 0.68 0 0 Z " fill="#090F0F" transform="translate(805,56)"/>
<path d="M0 0 C3.375 0.688 3.375 0.688 7 2 C8.438 4.625 8.438 4.625 9 7 C8.01 6.01 7.02 5.02 6 4 C5.01 4.66 4.02 5.32 3 6 C0 2.25 0 2.25 0 0 Z " fill="#08110E" transform="translate(97,26)"/>
<path d="M0 0 C6.625 -0.25 6.625 -0.25 10 2 C10 2.66 10 3.32 10 4 C7.36 3.67 4.72 3.34 2 3 C2 2.34 2 1.68 2 1 C1.34 0.67 0.68 0.34 0 0 Z " fill="#18191B" transform="translate(606,138)"/>
<path d="M0 0 C0.33 0.66 0.66 1.32 1 2 C1.66 2 2.32 2 3 2 C2.67 3.65 2.34 5.3 2 7 C-4.875 3.25 -4.875 3.25 -6 1 C-4.793 1.031 -4.793 1.031 -3.562 1.062 C-1.066 1.296 -1.066 1.296 0 0 Z " fill="#0C0F10" transform="translate(716,25)"/>
<path d="M0 0 C0.99 0.33 1.98 0.66 3 1 C3 1.99 3 2.98 3 4 C2.01 4 1.02 4 0 4 C0 4.99 0 5.98 0 7 C0.99 7.33 1.98 7.66 3 8 C1.35 7.67 -0.3 7.34 -2 7 C-1.67 5.68 -1.34 4.36 -1 3 C-1.66 3 -2.32 3 -3 3 C-2.67 2.34 -2.34 1.68 -2 1 C-1.34 1.33 -0.68 1.66 0 2 C0 1.34 0 0.68 0 0 Z " fill="#090F0D" transform="translate(93,130)"/>
<path d="M0 0 C2.062 0.438 2.062 0.438 4 1 C4 1.66 4 2.32 4 3 C2.68 3 1.36 3 0 3 C0.33 3.66 0.66 4.32 1 5 C1.66 5 2.32 5 3 5 C3.33 5.99 3.66 6.98 4 8 C2.02 7.34 0.04 6.68 -2 6 C-1.125 1.125 -1.125 1.125 0 0 Z " fill="#171C1A" transform="translate(136,56)"/>
<path d="M0 0 C0.66 0 1.32 0 2 0 C2.33 2.64 2.66 5.28 3 8 C1.667 8 0.333 8 -1 8 C-1.125 2.25 -1.125 2.25 0 0 Z " fill="#191B1A" transform="translate(578,101)"/>
<path d="M0 0 C1.812 1.438 1.812 1.438 3 3 C2.01 3.99 1.02 4.98 0 6 C-1.65 4.35 -3.3 2.7 -5 1 C-2.688 0.312 -2.688 0.312 0 0 Z " fill="#1D2120" transform="translate(664,64)"/>
<path d="M0 0 C2.648 2.578 4.944 4.916 7 8 C5.02 8.99 5.02 8.99 3 10 C1.871 6.689 0.787 3.41 0 0 Z " fill="#1D2222" transform="translate(103,124)"/>
<path d="M0 0 C0.66 0.33 1.32 0.66 2 1 C1.01 1.897 1.01 1.897 0 2.812 C-2.337 4.875 -2.337 4.875 -2 8 C-3.65 8.33 -5.3 8.66 -7 9 C-5.445 5.183 -2.964 2.808 0 0 Z " fill="#050608" transform="translate(281,114)"/>
<path d="M0 0 C2.562 0.562 2.562 0.562 5 2 C6.312 4.625 6.312 4.625 7 7 C5.68 6.34 4.36 5.68 3 5 C3.33 4.67 3.66 4.34 4 4 C1.69 3.34 -0.62 2.68 -3 2 C-2.01 1.34 -1.02 0.68 0 0 Z " fill="#1F2221" transform="translate(697,17)"/>
<path d="M0 0 C2.97 1.98 2.97 1.98 6 4 C5.34 5.98 4.68 7.96 4 10 C3.67 10 3.34 10 3 10 C2.67 8.35 2.34 6.7 2 5 C1.01 5 0.02 5 -1 5 C-0.67 3.35 -0.34 1.7 0 0 Z " fill="#151C1A" transform="translate(850,61)"/>
<path d="M0 0 C2.475 0.99 2.475 0.99 5 2 C4.67 2.99 4.34 3.98 4 5 C1.938 5.688 1.938 5.688 0 6 C0 4 0 2 0 0 Z " fill="#090F0F" transform="translate(187,130)"/>
<path d="M0 0 C2.475 0.99 2.475 0.99 5 2 C4.67 2.99 4.34 3.98 4 5 C2.68 5 1.36 5 0 5 C0 4.34 0 3.68 0 3 C-0.66 3 -1.32 3 -2 3 C-1 1 -1 1 0 0 Z " fill="#171C1B" transform="translate(190,128)"/>
<path d="M0 0 C1.98 0 3.96 0 6 0 C6.33 1.98 6.66 3.96 7 6 C5.831 5.192 4.664 4.378 3.5 3.562 C2.85 3.11 2.201 2.658 1.531 2.191 C1.026 1.798 0.521 1.405 0 1 C0 0.67 0 0.34 0 0 Z " fill="#191D1C" transform="translate(698,89)"/>
<path d="M0 0 C2.475 0.495 2.475 0.495 5 1 C5.33 2.65 5.66 4.3 6 6 C4.35 5.67 2.7 5.34 1 5 C0.67 3.35 0.34 1.7 0 0 Z " fill="#1D201F" transform="translate(432,74)"/>
<path d="M0 0 C3.739 2.657 5.65 4.581 7 9 C5.35 8.67 3.7 8.34 2 8 C2.33 7.01 2.66 6.02 3 5 C2.258 4.319 2.258 4.319 1.5 3.625 C0 2 0 2 0 0 Z " fill="#070A0A" transform="translate(840,55)"/>
<path d="M0 0 C0.928 0.165 1.856 0.33 2.812 0.5 C5.956 1.077 5.956 1.077 9 1 C9.33 1.66 9.66 2.32 10 3 C5.946 4.158 3.782 3.837 0 2 C0 1.34 0 0.68 0 0 Z " fill="#1C2020" transform="translate(89,20)"/>
<path d="M0 0 C-2.36 2.36 -3.779 2.491 -7 3 C-7 2.34 -7 1.68 -7 1 C-7.66 0.67 -8.32 0.34 -9 0 C-5.931 -1.534 -3.299 -0.55 0 0 Z " fill="#191C1D" transform="translate(417,138)"/>
<path d="M0 0 C2.64 0.99 5.28 1.98 8 3 C6.312 4.188 6.312 4.188 4 5 C1.25 3.625 1.25 3.625 -1 2 C-0.67 1.34 -0.34 0.68 0 0 Z " fill="#191E1C" transform="translate(137,133)"/>
<path d="M0 0 C3.716 -0.201 4.772 -0.152 8 2 C7.67 2.99 7.34 3.98 7 5 C3.535 3.02 3.535 3.02 0 1 C0 0.67 0 0.34 0 0 Z " fill="#1E2122" transform="translate(656,132)"/>
<path d="M0 0 C0 2.31 0 4.62 0 7 C-0.99 7.33 -1.98 7.66 -3 8 C-3.688 5.688 -3.688 5.688 -4 3 C-1.724 0 -1.724 0 0 0 Z " fill="#181A1A" transform="translate(721,25)"/>
<path d="M0 0 C0.33 0.99 0.66 1.98 1 3 C-1.957 4.478 -4.742 4.06 -8 4 C-2 0 -2 0 0 0 Z " fill="#090B0C" transform="translate(621,137)"/>
<path d="M0 0 C2.475 0.495 2.475 0.495 5 1 C4.67 1.66 4.34 2.32 4 3 C4.99 4.485 4.99 4.485 6 6 C5.67 6.99 5.34 7.98 5 9 C3.35 6.03 1.7 3.06 0 0 Z " fill="#191A1A" transform="translate(59,96)"/>
<path d="M0 0 C-3 2 -3 2 -5 2 C-5.33 2.66 -5.66 3.32 -6 4 C-7.32 4 -8.64 4 -10 4 C-10 3.34 -10 2.68 -10 2 C-6.598 -0.094 -3.947 -0.179 0 0 Z " fill="#0C0D0F" transform="translate(594,50)"/>
<path d="M0 0 C1.65 1.65 3.3 3.3 5 5 C4.34 5 3.68 5 3 5 C2.67 5.66 2.34 6.32 2 7 C0.438 5.75 0.438 5.75 -1 4 C-0.688 1.812 -0.688 1.812 0 0 Z " fill="#1F2322" transform="translate(534,120)"/>
<path d="M0 0 C-0.99 1.485 -0.99 1.485 -2 3 C-2.99 2.67 -3.98 2.34 -5 2 C-5.33 2.33 -5.66 2.66 -6 3 C-6.33 2.01 -6.66 1.02 -7 0 C-4.333 -1.333 -2.833 -0.671 0 0 Z " fill="#080B0A" transform="translate(151,124)"/>
<path d="M0 0 C1.534 3.069 0.55 5.701 0 9 C-0.99 8.01 -1.98 7.02 -3 6 C-2 3 -2 3 0 0 Z " fill="#1A1E1D" transform="translate(725,115)"/>
<path d="M0 0 C0.99 0 1.98 0 3 0 C2.34 1.65 1.68 3.3 1 5 C-0.32 4.67 -1.64 4.34 -3 4 C-1.688 2 -1.688 2 0 0 Z " fill="#181C1B" transform="translate(188,113)"/>
<path d="M0 0 C2.64 0 5.28 0 8 0 C8 0.66 8 1.32 8 2 C3.545 2.495 3.545 2.495 -1 3 C-0.67 2.01 -0.34 1.02 0 0 Z " fill="#070707" transform="translate(747,11)"/>
</svg>
