<?xml version="1.0" encoding="iso-8859-1"?>
<!-- Generator: Adobe Illustrator 27.0.0, SVG Export Plug-In . SVG Version: 6.00 Build 0)  -->
<svg version="1.1" id="Capa_1" xmlns="http://www.w3.org/2000/svg" xmlns:xlink="http://www.w3.org/1999/xlink" x="0px" y="0px"
	 viewBox="0 0 511.917 511.917" style="enable-background:new 0 0 511.917 511.917;" xml:space="preserve">
<g>
	<g>
		
			<ellipse transform="matrix(0.7071 -0.7071 0.7071 0.7071 -106.0217 255.9588)" style="fill-rule:evenodd;clip-rule:evenodd;fill:#FFFFFF;" cx="255.959" cy="255.959" rx="245.959" ry="245.959"/>
		<path style="fill-rule:evenodd;clip-rule:evenodd;fill:#D2DCFD;" d="M255.958,10l0.025,0
			c-44.169,57.038-70.471,128.609-70.471,206.332c0,113.481,56.039,213.872,141.952,275.013
			c-22.63,6.866-46.634,10.571-71.507,10.571C120.119,501.917,10,391.798,10,255.959S120.119,10,255.958,10z"/>
		<path style="fill-rule:evenodd;clip-rule:evenodd;fill:#FD6050;" d="M255.958,10c-44.808,0-86.818,11.982-123,32.916
			l35.143,60.869c25.844-14.953,55.851-23.512,87.857-23.512V10z"/>
		<path style="fill-rule:evenodd;clip-rule:evenodd;fill:#FD6050;" d="M255.958,501.917c44.808,0,86.818-11.982,123-32.916
			l-35.143-60.869c-25.844,14.953-55.851,23.512-87.857,23.512V501.917z"/>
		<path style="fill-rule:evenodd;clip-rule:evenodd;fill:#FD6050;" d="M468.965,378.938c22.404-38.805,33.032-81.177,32.993-122.979
			h-70.286c0.028,29.858-7.564,60.124-23.566,87.842L468.965,378.938z"/>
		<path style="fill-rule:evenodd;clip-rule:evenodd;fill:#FD6050;" d="M468.965,132.98c-22.404-38.805-53.785-69.195-90.007-90.062
			l-35.142,60.869c25.872,14.905,48.287,36.613,64.29,64.33L468.965,132.98z"/>
		<path style="fill-rule:evenodd;clip-rule:evenodd;fill:#BC3C85;" d="M211.652,85.908C223.115,58.592,238.07,33.103,255.958,10
			c-44.808,0-86.818,11.982-123,32.916l35.143,60.869C181.588,95.983,196.207,89.922,211.652,85.908z"/>
		<path style="fill-rule:evenodd;clip-rule:evenodd;fill:#BC3C85;" d="M327.464,491.347c-23.995-17.076-45.659-37.214-64.422-59.844
			c-2.35,0.093-4.711,0.14-7.084,0.14l0,70.274C280.831,501.917,304.835,498.212,327.464,491.347z"/>
		<path style="fill-rule:evenodd;clip-rule:evenodd;fill:#BC3C85;" d="M42.952,378.938c22.404,38.805,53.785,69.195,90.006,90.062
			l35.143-60.869c-25.872-14.905-48.287-36.613-64.29-64.33L42.952,378.938z"/>
		
			<ellipse transform="matrix(0.7071 -0.7071 0.7071 0.7071 -106.0217 255.9588)" style="fill-rule:evenodd;clip-rule:evenodd;fill:#BC9AF4;" cx="255.959" cy="255.959" rx="175.685" ry="175.685"/>
		<path style="fill-rule:evenodd;clip-rule:evenodd;fill:#6864F7;" d="M263.04,431.49c-2.35,0.093-4.709,0.154-7.082,0.154
			c-97.028,0-175.685-78.657-175.685-175.685c0-81.727,55.806-150.415,131.389-170.049c-16.837,40.123-26.15,84.184-26.15,130.423
			C185.512,298.116,214.624,373.095,263.04,431.49z"/>
		<path style="fill-rule:evenodd;clip-rule:evenodd;fill:#BC3C85;" d="M42.952,132.98C20.548,171.785,9.92,214.157,9.959,255.959
			h70.286c-0.028-29.859,7.564-60.124,23.566-87.842L42.952,132.98z"/>
		<path style="fill-rule:evenodd;clip-rule:evenodd;fill:#FDCB50;" d="M167.225,167.225c-8.822,8.821-8.822,23.123,0,31.944
			c8.821,8.821,23.123,8.821,31.944,0c8.821-8.821,8.821-23.123,0-31.944C190.348,158.403,176.046,158.403,167.225,167.225z"/>
		<path style="fill-rule:evenodd;clip-rule:evenodd;fill:#FDCB50;" d="M239.986,239.987c-8.821,8.822-8.821,23.123,0,31.945
			c8.822,8.821,23.123,8.821,31.945,0c8.821-8.822,8.821-23.123,0-31.945C263.109,231.165,248.808,231.165,239.986,239.987z"/>
		<path style="fill-rule:evenodd;clip-rule:evenodd;fill:#FDCB50;" d="M199.169,344.693c8.821-8.821,8.821-23.123,0-31.944
			c-8.821-8.821-23.123-8.821-31.944,0c-8.822,8.821-8.822,23.123,0,31.944C176.046,353.514,190.348,353.514,199.169,344.693z"/>
		<path style="fill-rule:evenodd;clip-rule:evenodd;fill:#FDCB50;" d="M312.748,312.749c-8.821,8.821-8.821,23.123,0,31.944
			c8.821,8.821,23.123,8.821,31.944,0c8.821-8.821,8.821-23.123,0-31.944C335.871,303.928,321.569,303.928,312.748,312.749z"/>
		<path style="fill-rule:evenodd;clip-rule:evenodd;fill:#FDCB50;" d="M312.748,199.169c8.821,8.821,23.123,8.821,31.944,0
			c8.821-8.821,8.821-23.123,0-31.944c-8.821-8.821-23.123-8.821-31.944,0C303.927,176.046,303.927,190.348,312.748,199.169z"/>
	</g>
	<g>
		<path style="fill:#052A75;" d="M255.959,0C114.823,0,0,114.823,0,255.959s114.823,255.958,255.959,255.958
			c141.136,0,255.958-114.822,255.958-255.958S397.095,0,255.959,0z M255.959,491.917C125.851,491.917,20,386.067,20,255.959
			C20,125.851,125.851,20,255.959,20c130.108,0,235.958,105.851,235.958,235.959C491.917,386.067,386.067,491.917,255.959,491.917z"
			/>
		<path style="fill:#052A75;" d="M255.959,70.274c-102.387,0-185.685,83.298-185.685,185.685
			c0,102.387,83.298,185.685,185.685,185.685c102.387,0,185.685-83.298,185.685-185.685
			C441.644,153.572,358.346,70.274,255.959,70.274z M255.959,421.644c-91.359,0-165.685-74.326-165.685-165.685
			S164.6,90.274,255.959,90.274S421.644,164.6,421.644,255.959S347.318,421.644,255.959,421.644z"/>
		<path style="fill:#052A75;" d="M328.721,215.785c8.705,0,16.888-3.39,23.042-9.545c6.155-6.155,9.545-14.338,9.545-23.043
			c0-8.705-3.39-16.888-9.545-23.043c-12.706-12.705-33.38-12.706-46.086,0c-6.155,6.155-9.545,14.339-9.545,23.043
			c0,5.259,1.238,10.327,3.574,14.872l-28.886,28.885c-9.3-4.757-20.425-4.757-29.724,0l-28.886-28.885
			c2.336-4.546,3.574-9.614,3.574-14.872c0-8.705-3.39-16.888-9.545-23.043c-12.706-12.705-33.38-12.704-46.086,0
			c-6.155,6.155-9.545,14.339-9.545,23.043c0,8.705,3.39,16.889,9.545,23.043c6.155,6.155,14.338,9.545,23.043,9.545
			c5.259,0,10.327-1.238,14.872-3.574l28.886,28.885c-4.757,9.3-4.757,20.424,0,29.724l-28.896,28.896
			c-12.249-6.265-27.665-4.278-37.905,5.961c-6.155,6.155-9.545,14.339-9.545,23.043c0,8.705,3.39,16.889,9.545,23.043c0,0,0,0,0,0
			c6.155,6.154,14.338,9.545,23.042,9.545c8.705,0,16.889-3.39,23.043-9.545c6.155-6.155,9.545-14.338,9.545-23.043
			c0-5.258-1.238-10.326-3.574-14.872l28.886-28.886c4.65,2.378,9.756,3.568,14.862,3.568c5.106,0,10.212-1.189,14.862-3.568
			l28.886,28.886c-2.336,4.546-3.574,9.614-3.574,14.872c0,8.705,3.39,16.889,9.545,23.043c6.155,6.155,14.338,9.545,23.043,9.545
			c8.705,0,16.888-3.39,23.042-9.545c0,0,0,0,0,0c6.154-6.155,9.545-14.338,9.545-23.043s-3.39-16.888-9.545-23.043
			c-10.24-10.24-25.656-12.227-37.905-5.961l-28.895-28.895c4.757-9.3,4.757-20.425,0-29.724l28.886-28.885
			C318.394,214.548,323.462,215.785,328.721,215.785z M319.82,174.296c2.454-2.454,5.677-3.681,8.9-3.681
			c3.224,0,6.447,1.227,8.901,3.681c2.378,2.377,3.688,5.539,3.688,8.901s-1.31,6.523-3.688,8.901
			c-2.377,2.377-5.538,3.687-8.9,3.687c-3.363,0-6.523-1.31-8.901-3.688c-2.377-2.377-3.687-5.539-3.687-8.901
			S317.442,176.673,319.82,174.296z M174.295,192.098c-2.377-2.377-3.687-5.539-3.687-8.901s1.31-6.523,3.688-8.901
			c2.454-2.454,5.677-3.681,8.901-3.681c3.223,0,6.447,1.227,8.9,3.681c2.378,2.377,3.688,5.539,3.688,8.901
			s-1.31,6.523-3.688,8.901c-2.377,2.377-5.538,3.687-8.901,3.687C179.834,195.785,176.673,194.476,174.295,192.098z
			 M192.097,337.622c-2.377,2.377-5.538,3.687-8.901,3.687c-3.362,0-6.523-1.31-8.9-3.687l0,0c-2.377-2.377-3.687-5.539-3.687-8.901
			s1.31-6.523,3.688-8.901c2.454-2.454,5.677-3.681,8.901-3.681c3.223,0,6.447,1.227,8.9,3.681c2.378,2.377,3.688,5.539,3.688,8.901
			S194.475,335.244,192.097,337.622z M247.058,264.86c-4.908-4.908-4.908-12.895,0-17.802c2.454-2.454,5.677-3.681,8.901-3.681
			s6.447,1.227,8.901,3.681c4.907,4.908,4.908,12.895,0,17.802C259.951,269.767,251.965,269.768,247.058,264.86z M337.621,319.82
			c2.378,2.377,3.688,5.539,3.688,8.901s-1.31,6.523-3.687,8.901l0,0c-2.377,2.377-5.538,3.687-8.9,3.687
			c-3.363,0-6.523-1.31-8.901-3.688c-2.377-2.377-3.687-5.539-3.687-8.901s1.31-6.523,3.688-8.901
			c2.454-2.454,5.677-3.681,8.9-3.681C331.944,316.139,335.167,317.366,337.621,319.82z"/>
	</g>
</g>
<g>
</g>
<g>
</g>
<g>
</g>
<g>
</g>
<g>
</g>
<g>
</g>
<g>
</g>
<g>
</g>
<g>
</g>
<g>
</g>
<g>
</g>
<g>
</g>
<g>
</g>
<g>
</g>
<g>
</g>
</svg>
